# xmcd
#
# Track frame offsets:
#	150
#	13946
#	31249
#	51066
#	70229
#	84280
#	98742
#	116885
#	137965
#	154431
#	172823
#	187843
#	210564
#	229142
#	246580
#	263064
#	279035
#	297262
#
# Disc length: 4136
#
# Revision: 1
# Processed by: cddbd v1.5.2PL0 Copyright (c) Steve Scherf et al.
# Submitted via: kJams Pro (development) 1.0patch52.44
#
DISCID=fb102612
DTITLE=Various Artist - CBESP508–03
DYEAR=2011
DGENRE=Country
TTITLE0=Morgan, Craig - Still A Little Chicken Left On That Bone
TTITLE1=Thompson, Josh - Won't Be Lonely Long
TTITLE2=Aldean F§Kelly Clarkson, Jason - Don't You Wanna Stay
TTITLE3=Little Big Town - Kiss Goodbye
TTITLE4=Alabama - Are You Sure Hank Done It This Way
TTITLE5=Shepherd, Ashton - Look It Up
TTITLE6=Rascal Flatts - I Won't Let Go
TTITLE7=Lewis, Aaron - Country Boy
TTITLE8=Janedear Girls - Shotgun Girl
TTITLE9=Allan, Gary - Kiss Me When I'm Down
TTITLE10=Shelton, Blake - Who Are You When I'm Not Looking
TTITLE11=Swift, Taylor - Back To December
TTITLE12=Urban, Keith - Without You
TTITLE13=Campbell, Craig - Family Man
TTITLE14=Rimes, LeAnn - Crazy Women
TTITLE15=Eli Young Band - Crazy Girl
TTITLE16=Church, Eric - Homeboy
TTITLE17=Underwood, Carrie - Songs Like This
EXTD=
EXTT0=
EXTT1=
EXTT2=
EXTT3=
EXTT4=
EXTT5=
EXTT6=
EXTT7=
EXTT8=
EXTT9=
EXTT10=
EXTT11=
EXTT12=
EXTT13=
EXTT14=
EXTT15=
EXTT16=
EXTT17=
PLAYORDER=
